<svg width="800" height="800" viewBox="0 0 800 800" fill="none" xmlns="http://www.w3.org/2000/svg">
<path d="M340.93 402.376C340.93 503.5 348.155 588.47 298.26 638.756C270.196 667.045 225.914 683.712 171.432 683.712C82.0691 683.712 32.452 640.178 0.783203 579.937C31.2707 560.47 62.427 541.653 94.1816 523.447C107.138 559.678 150.886 600.412 200.257 575.337C231.549 559.431 227.936 511.212 227.936 458.873C227.936 350.203 227.936 224.842 227.936 126.798C227.838 125.167 227.741 123.537 229.08 123.339C266.371 123.339 303.655 123.339 340.932 123.339C340.93 210.675 340.93 309.483 340.93 402.376ZM624.574 336.659C596.063 324.45 560.624 310.006 551.936 283.609C542.197 254.025 558.805 229.651 577.297 221.358C617.958 203.095 666.419 233.164 676.458 264.016C707.057 245.801 737.557 227.478 765.249 206.366C732.708 152.328 685.008 113.644 598.057 116.426C550.182 117.956 514.218 133.07 487.368 155.626C461.163 177.634 440.929 208.523 437.779 252.484C428.364 384.066 526.822 417.653 610.739 454.261C637.193 465.8 666.6 477.451 678.771 500.381C703.866 547.697 659.413 578.912 621.118 582.251C559.655 587.606 518.214 551.647 494.282 514.22C464.386 532.751 431.878 548.666 403.191 568.412C443.093 638.581 508.518 684.006 610.739 683.714C715.021 683.42 792.332 633.142 798.678 538.437C807.308 409.712 710.869 373.601 624.574 336.659Z" fill="white"/>
</svg>
