<svg width="800" height="800" viewBox="0 0 800 800" fill="none" xmlns="http://www.w3.org/2000/svg">
<g clip-path="url(#clip0_87_5)">
<path fill-rule="evenodd" clip-rule="evenodd" d="M400 75C220.508 75 75 220.508 75 400C75 579.495 220.508 725 400 725C467.664 725 530.44 704.355 582.46 668.995L300 328.856V562.5C300 583.21 283.21 600 262.5 600C241.79 600 225 583.21 225 562.5V225C225 209.2 234.903 195.095 249.764 189.729C264.625 184.363 281.256 188.888 291.35 201.043L665.04 651.045C678.11 666.785 676.15 690.1 660.635 703.435C590.65 763.6 499.528 800 400 800C179.086 800 0 620.915 0 400C0 179.086 179.086 0 400 0C620.915 0 800 179.086 800 400C800 438.214 794.63 475.237 784.58 510.325C779.68 527.445 773.665 544.09 766.625 560.185C758.325 579.16 736.215 587.81 717.24 579.51C698.265 571.21 689.61 549.1 697.915 530.125C703.625 517.065 708.505 503.56 712.48 489.676C720.625 461.235 725 431.16 725 400C725 220.508 579.495 75 400 75ZM525 187.5C545.71 187.5 562.5 204.29 562.5 225V375C562.5 395.71 545.71 412.5 525 412.5C504.29 412.5 487.5 395.71 487.5 375V225C487.5 204.29 504.29 187.5 525 187.5Z" fill="black"/>
</g>
<defs>
<clipPath id="clip0_87_5">
<rect width="800" height="800" fill="white"/>
</clipPath>
</defs>
</svg>
