<svg width="800" height="760" viewBox="0 0 800 760" fill="none" xmlns="http://www.w3.org/2000/svg">
<path d="M554.424 530.125C583.449 527.65 605.849 502.125 604.424 471.65C602.849 441.175 577.849 416.725 547.524 416.725H545.424C514.049 417.75 489.449 444.2 490.499 475.7C491.524 491.725 498.024 504.6 507.024 514.1C471.999 582.075 419.649 631.975 340.099 674C286.724 701.875 230.324 712.425 175.399 704.875C129.424 698.5 93.4991 677.95 71.4991 644.975C38.5241 594.975 35.5241 541.2 63.0241 487.175C83.0491 448.25 113.024 419.7 132.924 405.775C127.999 392.775 121.999 370.9 118.999 354.35C-28.9009 460.225 -13.8009 605.15 31.1241 673.525C64.5991 723.525 132.924 755.425 207.799 755.425C227.874 755.425 248.824 754 269.274 748.9C399.249 723.9 497.549 646.025 553.899 531.2L554.424 530.125ZM732.674 405.275C655.349 314.375 541.399 264.375 411.599 264.375H394.524C386.199 246 366.649 234.45 344.649 234.45H343.224C311.724 234.45 287.224 261.525 288.249 292.925C289.324 322.85 314.674 347.85 345.149 347.85H347.649C370.149 346.825 389.574 332.875 397.649 312.825H416.124C493.099 312.825 565.899 335.35 632.424 379.25C683.199 412.675 719.799 456.725 740.224 509.175C758.199 552 757.149 594.075 738.649 629.1C710.274 683.9 662.224 712.925 598.949 712.925C558.974 712.925 520.049 700.425 499.974 691.45C487.999 701.35 467.949 717.875 453.474 727.925C497.499 747.825 541.899 759.3 584.874 759.3C682.274 759.3 754.674 704.475 782.149 651.5C812.074 591.6 809.624 490.675 733.174 404.225L732.674 405.275ZM216.274 548.1C217.349 578.025 242.699 603.025 273.299 603.025H275.274C307.299 602 331.649 575.55 330.199 544.05C330.199 514.075 304.299 489.075 273.824 489.075H271.724C269.799 489.075 266.799 489.075 264.199 490.15C222.799 420.225 205.324 345.225 211.824 264.35C215.749 203.425 235.799 150.55 271.724 106.55C301.699 69.1749 358.049 50.5499 396.599 49.6499C504.424 47.5499 549.474 182.05 552.874 235.45L602.874 250.425C591.274 86.625 489.474 0.699951 392.074 0.699951C300.674 0.699951 216.274 67.1 182.299 164.5C135.924 294.475 166.399 419.2 223.299 519.2C218.374 525.575 215.374 537.175 216.274 548.1Z" fill="white"/>
</svg>
